<svg aria-hidden="true" style="position: absolute; width: 0; height: 0; overflow: hidden;" version="1.1" xmlns="http://www.w3.org/2000/svg" xmlns:xlink="http://www.w3.org/1999/xlink">
    <defs>
        <symbol id="icon-facebook" viewBox="0 0 15 32">
        <path d="M14.995 0.013v5.148s-3.795-0.375-4.748 1.075c-0.52 0.8-0.211 3.124-0.257 4.798h5.034c-0.425 1.949-0.73 3.274-1.043 4.973h-4.019v15.994h-6.975v-15.932h-2.968v-5.036h2.935c0.15-3.686 0.206-7.335 2.036-9.184 2.057-2.087 4.021-1.837 10.005-1.837z"></path>
        </symbol>

        <symbol id="icon-glass" viewBox="0 0 32 32">
        <path d="M31.111 26.862c0.511 0.537 0.825 1.265 0.825 2.067 0 1.657-1.344 3.001-3.001 3.001-0.804 0-1.535-0.316-2.074-0.832l0.001 0.001-8.769-8.78c-1.753 1.056-3.87 1.68-6.132 1.68-6.645 0-12.032-5.387-12.032-12.032s5.387-12.032 12.032-12.032c6.645 0 12.032 5.387 12.032 12.032 0 2.255-0.62 4.365-1.7 6.169l0.030-0.055 8.788 8.78zM12.011 3.016c-4.963 0-8.987 4.024-8.987 8.987s4.024 8.987 8.987 8.987c4.963 0 8.987-4.024 8.987-8.987v0c-0.003-4.962-4.025-8.984-8.987-8.987h-0z"></path>
        </symbol>

        <symbol id="icon-instagram" viewBox="0 0 32 32">
        <path  d="M27.976 32.001h-23.991c-2.208 0-3.999-1.79-3.999-3.999v0-23.991c0-2.208 1.79-3.999 3.999-3.999v0h23.991c2.208 0 3.999 1.79 3.999 3.999v0 23.991c0 2.208-1.79 3.999-3.999 3.999v0zM15.981 9.809c-0 0-0.001 0-0.001 0-2.479 0-4.617 1.457-5.606 3.561l-0.016 0.038c-0.008 0.024-0.017 0.045-0.028 0.064l0.001-0.001c-0.038 0.082-0.092 0.219-0.142 0.357l-0.018 0.056c-0.024 0.062-0.050 0.125-0.071 0.187-0.046 0.137-0.084 0.287-0.125 0.425-0.018 0.062-0.037 0.137-0.052 0.2-0.033 0.15-0.055 0.3-0.076 0.462-0.009 0.062-0.021 0.125-0.029 0.187-0.023 0.198-0.036 0.428-0.036 0.661v0.001c0 3.423 2.775 6.198 6.198 6.198s6.198-2.775 6.198-6.198v0c-0.001-0.234-0.014-0.464-0.039-0.691l0.003 0.029c-0.008-0.062-0.020-0.125-0.029-0.187-0.023-0.187-0.050-0.344-0.083-0.499l0.007 0.037c-0.026-0.108-0.044-0.175-0.063-0.242l0.010 0.042c-0.035-0.137-0.072-0.287-0.125-0.425-0.021-0.062-0.047-0.125-0.071-0.187-0.068-0.194-0.122-0.33-0.18-0.464l0.020 0.052c-0.011-0.018-0.020-0.039-0.027-0.060l-0.001-0.002c-1.004-2.141-3.141-3.597-5.618-3.599h-0zM28.376 5.211c0-0.001 0-0.002 0-0.003 0-0.882-0.715-1.597-1.597-1.597-0.001 0-0.002 0-0.003 0h-3.199c-0.001 0-0.002 0-0.003 0-0.882 0-1.597 0.715-1.597 1.597 0 0.001 0 0.002 0 0.003v-0 3.199c0 0.001 0 0.002 0 0.002 0 0.882 0.715 1.597 1.597 1.597 0.001 0 0.002 0 0.003 0h3.199c0.001 0 0.002 0 0.003 0 0.882 0 1.597-0.715 1.597-1.597 0-0.001 0-0.002 0-0.003v0-3.199zM28.376 13.408h-2.949c0.222 0.778 0.35 1.671 0.35 2.595 0 5.41-4.386 9.796-9.796 9.796s-9.796-4.386-9.796-9.796c0-0.923 0.128-1.817 0.367-2.664l-0.017 0.069h-2.949v13.395c0 0.001 0 0.002 0 0.003 0 0.882 0.715 1.597 1.597 1.597 0.001 0 0.002 0 0.003 0h21.592c0.001 0 0.002 0 0.003 0 0.882 0 1.597-0.715 1.597-1.597 0-0.001 0-0.002 0-0.003v0-13.395z"></path>
        </symbol>

        <symbol id="icon-pinterest" viewBox="0 0 24 32">
        <path d="M10.173 20.78c-0.261 1.050-0.525 2.137-0.797 3.199-0.268 1.217-0.576 2.25-0.951 3.25l0.054-0.164c-0.652 1.69-1.514 3.149-2.575 4.438l0.022-0.027c-0.718 0.825-0.566 0.5-0.782 0.45-0.165-0.038-0.179-0.2-0.211-0.425-0.055-0.61-0.086-1.32-0.086-2.036 0-0.752 0.034-1.497 0.102-2.232l-0.007 0.094c0.115-1.599 0.377-3.082 0.774-4.508l-0.038 0.16c0.605-2.574 1.182-5.098 1.793-7.697 0.063-0.162 0.104-0.35 0.112-0.546l0-0.004c-0.257-0.619-0.446-1.337-0.533-2.087l-0.003-0.037c-0.026-0.223-0.041-0.481-0.041-0.742 0-0.602 0.078-1.186 0.225-1.742l-0.011 0.047c0.268-1.324 1.156-2.396 2.341-2.914l0.026-0.010c0.263-0.091 0.565-0.144 0.88-0.144 0.471 0 0.915 0.118 1.302 0.327l-0.015-0.007c0.556 0.337 0.953 0.887 1.081 1.535l0.002 0.015c0.052 0.286 0.082 0.615 0.082 0.95 0 0.502-0.066 0.988-0.19 1.45l0.009-0.039c-0.334 1.524-0.772 2.674-1.171 4.136-0.181 0.472-0.286 1.018-0.286 1.589 0 0.237 0.018 0.47 0.053 0.698l-0.003-0.025c0.148 0.664 0.529 1.221 1.050 1.594l0.008 0.005c0.503 0.364 1.133 0.582 1.814 0.582 0.076 0 0.152-0.003 0.227-0.008l-0.010 0.001c1.384-0.127 2.573-0.868 3.303-1.946l0.010-0.016c1.169-1.641 1.928-3.648 2.091-5.822l0.002-0.039c0.068-0.527 0.107-1.138 0.107-1.757 0-0.265-0.007-0.529-0.021-0.791l0.002 0.037c-0.059-1.48-0.579-2.827-1.42-3.914l0.012 0.016c-0.803-0.985-1.87-1.728-3.092-2.124l-0.047-0.013c-0.886-0.274-1.904-0.432-2.959-0.432-0.609 0-1.205 0.053-1.785 0.153l0.062-0.009c-2.694 0.411-4.928 2.074-6.12 4.365l-0.022 0.046c-0.659 1.208-1.046 2.646-1.046 4.175 0 0.030 0 0.060 0 0.091l-0-0.005c-0.002 0.052-0.003 0.113-0.003 0.174 0 1.094 0.317 2.114 0.863 2.973l-0.013-0.023c0.166 0.25 0.41 0.462 0.572 0.75 0.040 0.156 0.064 0.334 0.064 0.519 0 0.338-0.078 0.659-0.218 0.943l0.006-0.013c-0.137 0.537-0.152 1.262-0.772 1.275-0.302-0.034-0.573-0.141-0.803-0.304l0.005 0.004c-1.636-1.003-2.773-2.684-3.023-4.642l-0.003-0.032c-0.118-0.607-0.185-1.305-0.185-2.018s0.067-1.411 0.196-2.087l-0.011 0.069c0.684-3.298 2.698-6.029 5.444-7.655l0.054-0.029c1.404-0.838 3.053-1.429 4.815-1.667l0.067-0.007c0.59-0.089 1.284-0.147 1.988-0.162l0.018-0c0.171-0.009 0.372-0.014 0.573-0.014 1.748 0 3.41 0.373 4.909 1.044l-0.076-0.030c1.462 0.656 2.701 1.563 3.716 2.678l0.008 0.009c1.044 1.139 1.835 2.527 2.274 4.064l0.018 0.072c0.292 0.85 0.473 1.83 0.5 2.848l0 0.013c-0.047 1.077-0.185 2.093-0.407 3.077l0.022-0.116c-0.421 3.339-2.202 6.194-4.761 8.036l-0.035 0.024c-1.324 0.865-2.946 1.38-4.688 1.38-0.109 0-0.218-0.002-0.326-0.006l0.016 0c-0.918-0.057-1.763-0.319-2.507-0.74l0.029 0.015c-0.691-0.365-1.25-0.897-1.638-1.543l-0.010-0.019z"></path>
        </symbol>

        <symbol id="icon-shop" viewBox="0 0 32 32">
        <path d="M31.201 9.076l-4.412 9.784c-0.22 0.488-0.689 0.829-1.241 0.861l-0.004 0-12.665 0.845 0.729 2.094h13.804c1.621 0 2.935 1.314 2.935 2.935s-1.314 2.935-2.935 2.935c-1.62 0-2.934-1.313-2.935-2.933v-0h-13.697c-0.001 1.62-1.315 2.933-2.935 2.933s-2.935-1.314-2.935-2.935 1.314-2.935 2.935-2.935h2.65l-5.657-16.143h-3.362c-0.81 0-1.468-0.657-1.468-1.468s0.657-1.468 1.468-1.468v0h4.412c0.637 0.005 1.177 0.41 1.384 0.975l0.003 0.010 0.854 2.442h21.72c0.002 0 0.005-0 0.007-0 0.811 0 1.468 0.657 1.469 1.467v0c-0.005 0.217-0.050 0.423-0.129 0.611l0.004-0.011zM9.161 9.942l2.704 7.75 12.612-0.841 3.113-6.909h-18.429z"></path>
        </symbol>

        <symbol id="icon-twitter" viewBox="0 0 32 32">
        <path d="M21.439 3.095c0.096-0.005 0.209-0.008 0.323-0.008 1.879 0 3.576 0.781 4.784 2.037l0.002 0.002c1.241-0.206 2.354-0.597 3.368-1.148l-0.056 0.028 0.804-0.443c-0.407 1.229-1.133 2.261-2.080 3.031l-0.012 0.009c-0.205 0.195-0.439 0.363-0.693 0.497l-0.017 0.008v0.012c1.354-0.145 2.592-0.494 3.734-1.015l-0.075 0.031v0.012c-0.611 0.969-1.338 1.797-2.175 2.497l-0.017 0.014c-0.336 0.271-0.673 0.542-1.009 0.8 0.010 0.224 0.015 0.487 0.015 0.751 0 1.205-0.114 2.384-0.333 3.526l0.019-0.117c-1.615 7.249-5.893 12.172-12.664 14.289-1.607 0.478-3.453 0.753-5.363 0.753-1.339 0-2.647-0.135-3.91-0.392l0.125 0.021c-1.476-0.356-2.743-0.782-3.959-1.304l0.16 0.061c-0.723-0.318-1.323-0.635-1.9-0.987l0.070 0.040c-0.19-0.111-0.378-0.234-0.567-0.345 0.431 0.058 0.93 0.091 1.436 0.091 0.221 0 0.441-0.006 0.659-0.019l-0.030 0.001c0.636-0.098 1.259-0.074 1.846-0.197 1.46-0.288 2.759-0.774 3.945-1.438l-0.067 0.034c0.67-0.316 1.246-0.698 1.759-1.151l-0.008 0.007c-0.691-0.002-1.352-0.128-1.963-0.357l0.039 0.013c-1.945-0.672-3.445-2.183-4.088-4.089l-0.013-0.046c0.346 0.067 0.744 0.105 1.151 0.105 0.618 0 1.215-0.088 1.78-0.251l-0.045 0.011c-0.804-0.111-1.521-0.413-2.126-0.858l0.013 0.009c-1.836-1.097-3.047-3.074-3.047-5.334 0-0.067 0.001-0.135 0.003-0.202l-0 0.010c0.222 0.098 0.442 0.209 0.662 0.308 0.389 0.163 0.844 0.296 1.316 0.376l0.037 0.005c0.174 0.063 0.376 0.099 0.585 0.099 0.105 0 0.209-0.009 0.309-0.027l-0.011 0.002h-0.032c-0.325-0.369-0.855-0.628-1.183-1.034-1.011-1.154-1.628-2.676-1.628-4.341 0-0.538 0.064-1.061 0.186-1.562l-0.009 0.045c0.178-0.642 0.415-1.202 0.713-1.722l-0.019 0.036c0.011 0 0.021 0.012 0.032 0.012 0.173 0.255 0.365 0.477 0.581 0.674l0.003 0.003c0.572 0.689 1.203 1.295 1.896 1.826l0.028 0.020c2.201 1.802 4.86 3.131 7.773 3.791l0.127 0.024c0.867 0.229 1.865 0.367 2.893 0.381l0.009 0c-0.114-0.439-0.179-0.942-0.179-1.461 0-0.562 0.077-1.106 0.22-1.622l-0.010 0.042c0.489-1.962 1.841-3.534 3.618-4.316l0.041-0.016c0.409-0.18 0.889-0.333 1.388-0.435l0.047-0.008c0.261-0.037 0.524-0.062 0.786-0.098z"></path>
        </symbol>
    </defs>
</svg>
